<?xml version="1.0" encoding="UTF-8"?>
<svg width="17px" height="16px" viewBox="0 0 17 16" version="1.1" xmlns="http://www.w3.org/2000/svg" xmlns:xlink="http://www.w3.org/1999/xlink">
    <!-- Generator: Sketch 52.2 (67145) - http://www.bohemiancoding.com/sketch -->
    <title>contact-twitter</title>
    <desc>Created with Sketch.</desc>
    <g id="Page-1" stroke="none" stroke-width="1" fill="none" fill-rule="evenodd">
        <g id="Twitter_Social_Icon_Rounded_Square_Color-Copy-2" transform="translate(0.000000, 1.000000)" fill="#FFFFFF">
            <path d="M5.34013605,14 C11.755102,14 15.2653061,8.61220472 15.2653061,3.94783465 C15.2653061,3.79625984 15.2653061,3.64468504 15.2585034,3.49311024 C15.9387755,2.99704724 16.5306122,2.37007874 17,1.66043307 C16.3741497,1.94291339 15.7006803,2.12893701 14.9931973,2.21850394 C15.7142857,1.78444882 16.2653061,1.08858268 16.5306122,0.261811024 C15.8571429,0.668307087 15.1088435,0.957677165 14.3129252,1.11614173 C13.6734694,0.427165354 12.7687075,0 11.7687075,0 C9.84353741,0 8.27891156,1.58464567 8.27891156,3.53444882 C8.27891156,3.81003937 8.31292517,4.07874016 8.36734694,4.34055118 C5.46938776,4.19586614 2.89795918,2.78346457 1.17687075,0.647637795 C0.87755102,1.17125984 0.707482993,1.77755906 0.707482993,2.42519685 C0.707482993,3.6515748 1.32653061,4.73326772 2.2585034,5.36712598 C1.68707483,5.34645669 1.14965986,5.18799213 0.680272109,4.9261811 C0.680272109,4.93996063 0.680272109,4.95374016 0.680272109,4.97440945 C0.680272109,6.68307087 1.88435374,8.11614173 3.47619048,8.43996063 C3.18367347,8.5226378 2.87755102,8.56397638 2.55782313,8.56397638 C2.33333333,8.56397638 2.11564626,8.54330709 1.9047619,8.5019685 C2.34693878,9.90748031 3.63945578,10.9271654 5.16326531,10.9547244 C3.96598639,11.9055118 2.46258503,12.4704724 0.829931973,12.4704724 C0.551020408,12.4704724 0.272108844,12.4566929 0,12.4222441 C1.53741497,13.4143701 3.37414966,14 5.34013605,14" id="Path"></path>
        </g>
    </g>
</svg>