<?xml version="1.0" encoding="UTF-8"?>
<svg width="16px" height="16px" viewBox="0 0 16 16" version="1.1" xmlns="http://www.w3.org/2000/svg" xmlns:xlink="http://www.w3.org/1999/xlink">
    <!-- Generator: Sketch 52.5 (67469) - http://www.bohemiancoding.com/sketch -->
    <title>contact-twitter</title>
    <desc>Created with Sketch.</desc>
    <g id="I-design-…" stroke="none" stroke-width="1" fill="none" fill-rule="evenodd">
        <g id="Twitter_Social_Icon_Rounded_Square_Color-Copy-2" transform="translate(0.000000, 2.000000)" fill="#FFFFFF">
            <path d="M5.0260104,13 C11.0636255,13 14.3673469,7.99704724 14.3673469,3.66584646 C14.3673469,3.52509843 14.3673469,3.38435039 14.3609444,3.24360236 C15.0012005,2.78297244 15.5582233,2.2007874 16,1.54183071 C15.4109644,1.80413386 14.7771108,1.97687008 14.1112445,2.06003937 C14.789916,1.65698819 15.3085234,1.01082677 15.5582233,0.243110236 C14.9243697,0.620570866 14.220088,0.889271654 13.4709884,1.03641732 C12.8691477,0.396653543 12.017607,0 11.0764306,0 C9.2645058,0 7.79191677,1.47145669 7.79191677,3.28198819 C7.79191677,3.5378937 7.82392957,3.78740157 7.87515006,4.03051181 C5.14765906,3.89616142 2.727491,2.58464567 1.10764306,0.601377953 C0.825930372,1.08759843 0.665866347,1.65059055 0.665866347,2.2519685 C0.665866347,3.39074803 1.2484994,4.39517717 2.12565026,4.98375984 C1.58783513,4.96456693 1.08203281,4.81742126 0.640256102,4.57431102 C0.640256102,4.5871063 0.640256102,4.59990157 0.640256102,4.61909449 C0.640256102,6.20570866 1.7735094,7.53641732 3.27170868,7.8371063 C2.99639856,7.91387795 2.70828331,7.95226378 2.40736295,7.95226378 C2.19607843,7.95226378 1.99119648,7.93307087 1.79271709,7.89468504 C2.20888355,9.19980315 3.42537015,10.1466535 4.85954382,10.1722441 C3.73269308,11.0551181 2.31772709,11.5797244 0.781112445,11.5797244 C0.518607443,11.5797244 0.256102441,11.5669291 0,11.5349409 C1.44697879,12.4562008 3.17567027,13 5.0260104,13" id="Path"></path>
        </g>
    </g>
</svg>