<?xml version="1.0" encoding="UTF-8"?>
<svg width="120px" height="40px" viewBox="0 0 120 40" version="1.1" xmlns="http://www.w3.org/2000/svg" xmlns:xlink="http://www.w3.org/1999/xlink">
    <!-- Generator: Sketch 52.2 (67145) - http://www.bohemiancoding.com/sketch -->
    <title>side-objects</title>
    <desc>Created with Sketch.</desc>
    <g id="I-design-…" stroke="none" stroke-width="1" fill="none" fill-rule="evenodd">
        <path d="M17.8275,12.383 L23.2555,12.383 C24.2445,12.383 24.9345,13.073 24.9345,14.062 L24.9345,26.39 C24.9345,27.379 24.2445,28.069 23.2555,28.069 L17.8275,28.069 C16.8155,28.069 16.1485,27.379 16.1485,26.39 L16.1485,14.062 C16.1485,13.073 16.8155,12.383 17.8275,12.383 Z M21.8295,25.217 L21.8295,15.235 C21.8295,15.097 21.7145,14.982 21.6455,14.982 L19.4145,14.982 C19.2995,14.982 19.2535,15.143 19.2535,15.235 L19.2535,25.217 C19.2535,25.309 19.3225,25.424 19.4145,25.424 L21.6455,25.424 C21.7145,25.424 21.8295,25.332 21.8295,25.217 Z M38.0145,28 L30.9305,28 L30.9305,12.475 L37.9915,12.475 C39.0265,12.475 39.7395,13.188 39.7395,14.177 L39.7395,18.202 C39.7395,19.352 39.0495,20.042 37.9685,20.249 C39.0495,20.479 39.7625,21.192 39.7625,22.227 L39.7625,26.275 C39.7625,27.31 39.0495,28 38.0145,28 Z M36.6805,25.171 L36.6805,21.698 C36.6805,21.514 36.5655,21.376 36.3585,21.376 L34.0355,21.376 L34.0355,25.47 L36.3585,25.47 C36.5655,25.47 36.6805,25.332 36.6805,25.171 Z M36.6805,18.616 L36.6805,15.396 C36.6805,15.189 36.5655,15.051 36.3585,15.051 L34.0355,15.051 L34.0355,18.961 L36.3585,18.961 C36.5655,18.961 36.6805,18.823 36.6805,18.616 Z M44.9765,20.571 L47.9895,20.571 L47.9895,25.217 C47.9895,25.332 48.1045,25.424 48.1965,25.424 L49.5535,25.424 C49.6915,25.424 49.8065,25.332 49.8065,25.217 L49.8065,12.475 L52.8885,12.475 L52.8885,26.298 C52.8885,27.31 52.1065,28.069 51.1405,28.069 L46.7475,28.069 C45.8045,28.069 44.9765,27.31 44.9765,26.298 L44.9765,20.571 Z M59.0225,28 L59.0225,12.475 L66.3595,12.475 L66.3595,15.12 L62.1275,15.12 L62.1275,18.869 L65.6925,18.869 L65.6925,21.468 L62.1275,21.468 L62.1275,25.355 L66.3595,25.355 L66.3595,28 L59.0225,28 Z M77.1855,22.204 L80.2905,22.204 L80.2905,26.252 C80.2905,27.333 79.5315,28.092 78.4505,28.092 L73.5515,28.092 C72.4935,28.092 71.7345,27.333 71.7345,26.252 L71.7345,14.246 C71.7345,13.142 72.4935,12.383 73.5515,12.383 L78.4505,12.383 C79.5315,12.383 80.2905,13.142 80.2905,14.246 L80.2905,18.225 L77.1855,18.225 L77.1855,15.281 C77.1855,15.143 77.0935,15.028 77.0245,15.028 L75.0465,15.028 C74.9315,15.028 74.8395,15.143 74.8395,15.281 L74.8395,25.194 C74.8395,25.332 74.9315,25.424 75.0465,25.424 L76.9785,25.424 C77.0935,25.424 77.1855,25.332 77.1855,25.194 L77.1855,22.204 Z M84.4695,12.475 L92.6345,12.475 L92.6345,15.12 L90.1045,15.12 L90.1045,28 L86.9995,28 L86.9995,15.12 L84.4695,15.12 L84.4695,12.475 Z M96.9515,28 L96.9515,25.286 L100.9995,25.286 C101.1375,25.286 101.2065,25.194 101.2065,25.079 L101.2065,21.813 C101.2065,21.698 101.1375,21.606 100.9995,21.606 L98.6075,21.606 C97.6415,21.606 96.9515,20.893 96.9515,19.927 L96.9515,14.154 C96.9515,13.165 97.6415,12.475 98.6075,12.475 L104.1275,12.475 L104.1275,15.12 L100.2405,15.12 C100.1255,15.12 100.0335,15.235 100.0335,15.373 L100.0335,18.593 C100.0335,18.685 100.1255,18.8 100.2405,18.8 L102.6325,18.8 C103.5985,18.8 104.3115,19.49 104.3115,20.479 L104.3115,26.321 C104.3115,27.31 103.5985,28 102.6325,28 L96.9515,28 Z" id="Objects" fill="#000000"></path>
    </g>
</svg>