<?xml version="1.0" encoding="UTF-8"?>
<svg width="120px" height="40px" viewBox="0 0 120 40" version="1.1" xmlns="http://www.w3.org/2000/svg" xmlns:xlink="http://www.w3.org/1999/xlink">
    <!-- Generator: Sketch 52.2 (67145) - http://www.bohemiancoding.com/sketch -->
    <title>side-software</title>
    <desc>Created with Sketch.</desc>
    <g id="I-design-…" stroke="none" stroke-width="1" fill="none" fill-rule="evenodd">
        <path d="M22.671875,18.671875 L21.015625,18.671875 C20.8697909,17.5572861 20.3437545,17 19.4375,17 C18.8489554,17 18.4062515,17.1158843 18.109375,17.3476562 C17.8124985,17.5794282 17.6640625,17.9244769 17.6640625,18.3828125 C17.6640625,18.8619816 18.4739502,19.5338498 20.09375,20.3984375 C21.4114649,21.1067744 22.1705719,21.6940081 22.3710938,22.1601562 C22.5716156,22.6263044 22.671875,23.1223932 22.671875,23.6484375 C22.671875,24.5755255 22.3450554,25.3658821 21.6914062,26.0195312 C21.0377571,26.6731804 20.2552129,27 19.34375,27 L17.671875,27 C15.4531139,27 14.34375,25.8906361 14.34375,23.671875 L16.015625,23.671875 C16.145834,24.7812555 16.6666621,25.3359375 17.578125,25.3359375 C18.1666696,25.3359375 18.6093735,25.2187512 18.90625,24.984375 C19.2031265,24.7499988 19.3515625,24.4036481 19.3515625,23.9453125 C19.3515625,23.4765602 18.5442789,22.8046919 16.9296875,21.9296875 C15.6067642,21.226559 14.8450531,20.6406273 14.6445312,20.171875 C14.4440094,19.7031227 14.34375,19.2083359 14.34375,18.6875 C14.34375,17.7552037 14.6718717,16.9622429 15.328125,16.3085938 C15.9843783,15.6549446 16.7656205,15.328125 17.671875,15.328125 L19.34375,15.328125 C21.4270938,15.328125 22.5364577,16.4426972 22.671875,18.671875 Z M28.34375,15.328125 L31.6875,15.328125 C32.5989629,15.328125 33.3815071,15.6575488 34.0351562,16.3164062 C34.6888054,16.9752637 35.015625,17.7604121 35.015625,18.671875 L35.015625,23.671875 C35.015625,24.5729212 34.6888054,25.3528613 34.0351562,26.0117188 C33.3815071,26.6705762 32.5989629,27 31.6875,27 L28.34375,27 C27.4322871,27 26.6497429,26.6731804 25.9960938,26.0195312 C25.3424446,25.3658821 25.015625,24.5833379 25.015625,23.671875 L25.015625,18.671875 C25.015625,17.7499954 25.3437467,16.9622429 26,16.3085938 C26.6562533,15.6549446 27.4374955,15.328125 28.34375,15.328125 Z M28.34375,18.671875 L28.34375,23.671875 C28.34375,24.1197939 28.5065088,24.5078109 28.8320312,24.8359375 C29.1575537,25.1640641 29.552081,25.328125 30.015625,25.328125 C30.479169,25.328125 30.8736963,25.1640641 31.1992188,24.8359375 C31.5247412,24.5078109 31.6875,24.1197939 31.6875,23.671875 L31.6875,18.671875 C31.6875,18.2135394 31.5221371,17.8203141 31.1914062,17.4921875 C30.8606754,17.1640609 30.4687523,17 30.015625,17 C29.5572894,17 29.1640641,17.1640609 28.8359375,17.4921875 C28.5078109,17.8203141 28.34375,18.2135394 28.34375,18.671875 Z M39.015625,27 L39.015625,17 L37.34375,17 L37.34375,15.328125 L39.015625,15.328125 L39.015625,15.1796875 C39.015625,14.3098915 39.3281219,13.5625031 39.953125,12.9375 C40.5781281,12.3124969 41.3255165,12 42.1953125,12 L45.671875,12 L45.671875,13.671875 L43.859375,13.671875 C43.4427063,13.671875 43.085939,13.8216131 42.7890625,14.1210938 C42.492186,14.4205744 42.34375,14.7734355 42.34375,15.1796875 L42.34375,15.328125 L44.015625,15.328125 L44.015625,17 L42.34375,17 L42.34375,27 L39.015625,27 Z M48.015625,12 L51.34375,12 L51.34375,15.328125 L53.015625,15.328125 L53.015625,17 L51.34375,17 L51.34375,23.671875 C51.34375,24.208336 51.5208316,24.6184882 51.875,24.9023438 C52.2291684,25.1861993 52.5572902,25.328125 52.859375,25.328125 L53.015625,25.328125 L53.015625,27 L51.34375,27 C50.4270787,27 49.6432324,26.6731804 48.9921875,26.0195312 C48.3411426,25.3658821 48.015625,24.5833379 48.015625,23.671875 L48.015625,17 L46.34375,17 L46.34375,15.328125 L48.015625,15.328125 L48.015625,12 Z M55.34375,15.328125 L58.671875,15.328125 L58.671875,25.328125 L60.34375,25.328125 C60.807294,25.328125 61.2018213,25.1640641 61.5273438,24.8359375 C61.8528662,24.5078109 62.015625,24.1197939 62.015625,23.671875 L62.015625,15.328125 L65.34375,15.328125 L65.34375,25.328125 L67.015625,25.328125 C67.4687523,25.328125 67.8580713,25.1640641 68.1835938,24.8359375 C68.5091162,24.5078109 68.671875,24.1197939 68.671875,23.671875 L68.671875,15.328125 L72.015625,15.328125 L72.015625,21.3046875 C72.015625,22.8567786 71.4570368,24.1940048 70.3398438,25.3164062 C69.2226507,26.4388077 67.8828203,27 66.3203125,27 L62.015625,27 L62.015625,26.46875 C61.3749968,26.8229184 60.5859422,27 59.6484375,27 L55.34375,27 L55.34375,15.328125 Z M81.015625,20.328125 L81.015625,18.671875 C81.015625,18.2135394 80.8502621,17.8203141 80.5195312,17.4921875 C80.1888004,17.1640609 79.7968773,17 79.34375,17 L77.671875,17 C76.6874951,17 76.1354173,17.5572861 76.015625,18.671875 L74.34375,18.671875 C74.5989596,16.4426972 75.7083235,15.328125 77.671875,15.328125 L81.015625,15.328125 C81.9270879,15.328125 82.7096321,15.6575488 83.3632812,16.3164062 C84.0169304,16.9752637 84.34375,17.7604121 84.34375,18.671875 L84.34375,27 L81.015625,27 L81.015625,25.328125 C80.885416,26.4427139 80.3281299,27 79.34375,27 L77.671875,27 C76.7604121,27 75.9778679,26.6731804 75.3242188,26.0195312 C74.6705696,25.3658821 74.34375,24.5833379 74.34375,23.671875 L74.34375,23.65625 C74.34375,22.7447871 74.6718717,21.9622429 75.328125,21.3085938 C75.9843783,20.6549446 76.7656205,20.328125 77.671875,20.328125 L81.015625,20.328125 Z M81.015625,22 L79.34375,22 C78.8854144,22 78.4921891,22.1627588 78.1640625,22.4882812 C77.8359359,22.8138037 77.671875,23.2031227 77.671875,23.65625 L77.671875,23.671875 C77.671875,24.1197939 77.8346338,24.5078109 78.1601562,24.8359375 C78.4856787,25.1640641 78.880206,25.328125 79.34375,25.328125 C79.807294,25.328125 80.2018213,25.1640641 80.5273438,24.8359375 C80.8528662,24.5078109 81.015625,24.1197939 81.015625,23.671875 L81.015625,22 Z M90,27 L86.671875,27 L86.671875,15.328125 L90,15.328125 L90,18.671875 C90.130209,17.5572861 90.4739555,16.721357 91.03125,16.1640625 C91.5885445,15.606768 92.3593701,15.328125 93.34375,15.328125 L95,15.328125 L95,18.671875 L91.671875,18.671875 C91.2135394,18.671875 90.8203141,18.8346338 90.4921875,19.1601562 C90.1640609,19.4856787 90,19.8749977 90,20.328125 L90,27 Z M105.671875,22 L99,22 L99,23.671875 C99,24.1197939 99.1627588,24.5078109 99.4882812,24.8359375 C99.8138037,25.1640641 100.208331,25.328125 100.671875,25.328125 L102.34375,25.328125 C103.447922,25.328125 104,24.7760472 104,23.671875 L105.671875,23.671875 C105.411457,25.8906361 104.302093,27 102.34375,27 L99,27 C98.0885371,27 97.3059929,26.6731804 96.6523438,26.0195312 C95.9986946,25.3658821 95.671875,24.5833379 95.671875,23.671875 L95.671875,18.671875 C95.671875,17.7499954 95.9999967,16.9622429 96.65625,16.3085938 C97.3125033,15.6549446 98.0937455,15.328125 99,15.328125 L102.34375,15.328125 C103.255213,15.328125 104.037757,15.6575488 104.691406,16.3164062 C105.345055,16.9752637 105.671875,17.7604121 105.671875,18.671875 L105.671875,22 Z M99,20.328125 L102.34375,20.328125 L102.34375,18.671875 C102.34375,18.2135394 102.178387,17.8203141 101.847656,17.4921875 C101.516925,17.1640609 101.125002,17 100.671875,17 C100.213539,17 99.8203141,17.1640609 99.4921875,17.4921875 C99.1640609,17.8203141 99,18.2135394 99,18.671875 L99,20.328125 Z" id="Software" fill="#000000"></path>
    </g>
</svg>