<?xml version="1.0" encoding="UTF-8"?>
<svg width="120px" height="40px" viewBox="0 0 120 40" version="1.1" xmlns="http://www.w3.org/2000/svg" xmlns:xlink="http://www.w3.org/1999/xlink">
    <!-- Generator: Sketch 52.2 (67145) - http://www.bohemiancoding.com/sketch -->
    <title>side-systems</title>
    <desc>Created with Sketch.</desc>
    <g id="I-design-…" stroke="none" stroke-width="1" fill="none" fill-rule="evenodd">
        <path d="M24.2024903,17.1367188 L21.9319825,18.3452148 C21.5739078,17.6127893 21.1303901,17.246582 20.6014161,17.246582 C20.3491361,17.246582 20.1334807,17.3299959 19.9544434,17.4968262 C19.775406,17.6636564 19.6858887,17.8772773 19.6858887,18.1376953 C19.6858887,18.5934268 20.2148548,19.0450824 21.2728028,19.4926758 C22.7295158,20.1193065 23.7101375,20.6971002 24.2146973,21.2260742 C24.7192571,21.7550482 24.9715332,22.4671179 24.9715332,23.3623047 C24.9715332,24.5097714 24.5483604,25.4700482 23.702002,26.2431641 C22.8800578,26.9755896 21.8872292,27.3417969 20.7234864,27.3417969 C18.7296613,27.3417969 17.3177288,26.3693131 16.4876465,24.4243164 L18.8313965,23.3378906 C19.156919,23.9075549 19.4051261,24.2696932 19.5760254,24.4243164 C19.9096859,24.7335627 20.308445,24.8881836 20.7723145,24.8881836 C21.7000535,24.8881836 22.1639161,24.4650107 22.1639161,23.6186523 C22.1639161,23.1303687 21.8058467,22.674644 21.0896973,22.2514648 C20.8130032,22.1131178 20.5363133,21.9788418 20.2596192,21.8486328 C19.9829251,21.7184238 19.7021662,21.5841478 19.417334,21.4458008 C18.619804,21.0551738 18.0582862,20.6645527 17.7327637,20.2739258 C17.3177226,19.777504 17.1102051,19.1386758 17.1102051,18.3574219 C17.1102051,17.3238881 17.4642055,16.4694044 18.1722168,15.7939453 C18.8965043,15.1184862 19.7754018,14.7807617 20.8089356,14.7807617 C22.3307531,14.7807617 23.4619267,15.5660729 24.2024903,17.1367188 Z M31.8849121,24.7905273 L26.5382324,15.1103516 L29.7242676,15.1103516 L33.3619629,21.9462891 L36.7555176,15.1103516 L39.8561035,15.1103516 L30.3834473,33.4697266 L27.2462403,33.4697266 L31.8849121,24.7905273 Z M49.332959,17.1367188 L47.0624512,18.3452148 C46.7043765,17.6127893 46.2608588,17.246582 45.7318848,17.246582 C45.4796049,17.246582 45.2639495,17.3299959 45.0849121,17.4968262 C44.9058748,17.6636564 44.8163574,17.8772773 44.8163574,18.1376953 C44.8163574,18.5934268 45.3453235,19.0450824 46.4032715,19.4926758 C47.8599845,20.1193065 48.8406062,20.6971002 49.345166,21.2260742 C49.8497258,21.7550482 50.102002,22.4671179 50.102002,23.3623047 C50.102002,24.5097714 49.6788291,25.4700482 48.8324707,26.2431641 C48.0105265,26.9755896 47.0176979,27.3417969 45.8539551,27.3417969 C43.86013,27.3417969 42.4481975,26.3693131 41.6181152,24.4243164 L43.9618652,23.3378906 C44.2873877,23.9075549 44.5355949,24.2696932 44.7064942,24.4243164 C45.0401547,24.7335627 45.4389137,24.8881836 45.9027832,24.8881836 C46.8305222,24.8881836 47.2943848,24.4650107 47.2943848,23.6186523 C47.2943848,23.1303687 46.9363154,22.674644 46.220166,22.2514648 C45.9434719,22.1131178 45.666782,21.9788418 45.3900879,21.8486328 C45.1133938,21.7184238 44.8326349,21.5841478 44.5478027,21.4458008 C43.7502727,21.0551738 43.1887549,20.6645527 42.8632324,20.2739258 C42.4481913,19.777504 42.2406738,19.1386758 42.2406738,18.3574219 C42.2406738,17.3238881 42.5946742,16.4694044 43.3026856,15.7939453 C44.026973,15.1184862 44.9058705,14.7807617 45.9394043,14.7807617 C47.4612218,14.7807617 48.5923954,15.5660729 49.332959,17.1367188 Z M56.0998535,17.6738281 L56.0998535,27 L53.3532715,27 L53.3532715,17.6738281 L52.1813965,17.6738281 L52.1813965,15.1103516 L53.3532715,15.1103516 L53.3532715,10.7524414 L56.0998535,10.7524414 L56.0998535,15.1103516 L58.236084,15.1103516 L58.236084,17.6738281 L56.0998535,17.6738281 Z M71.851123,21.7021484 L63.3306152,21.7021484 C63.4038578,22.6787158 63.7212374,23.455889 64.2827637,24.0336914 C64.8442899,24.6033557 65.5644975,24.8881836 66.4434082,24.8881836 C67.1270054,24.8881836 67.6925922,24.7254248 68.1401855,24.3999023 C68.5796409,24.0743799 69.0801241,23.4721724 69.6416504,22.5932617 L71.9609863,23.887207 C71.6029116,24.4975616 71.2244974,25.0204243 70.8257324,25.4558105 C70.4269674,25.8911968 69.9997256,26.2492662 69.5439941,26.5300293 C69.0882627,26.8107924 68.5959173,27.0162754 68.0669433,27.1464844 C67.5379693,27.2766934 66.9642446,27.3417969 66.3457519,27.3417969 C64.5716545,27.3417969 63.1475151,26.7721411 62.073291,25.6328125 C60.9990669,24.4853458 60.4619629,22.9635511 60.4619629,21.0673828 C60.4619629,19.1874906 60.982791,17.6656959 62.0244629,16.5019531 C63.0742728,15.3544865 64.4658605,14.7807617 66.1992676,14.7807617 C67.9489508,14.7807617 69.3324005,15.3382106 70.3496582,16.453125 C71.3587778,17.5599014 71.8633301,19.093903 71.8633301,21.0551758 L71.851123,21.7021484 Z M69.0312988,19.4560547 C68.6488099,17.9912036 67.7251538,17.2587891 66.2603027,17.2587891 C65.9266422,17.2587891 65.6133315,17.3096512 65.3203613,17.411377 C65.0273911,17.5131027 64.7608736,17.6595856 64.5208008,17.8508301 C64.280728,18.0420745 64.075245,18.2719713 63.9043457,18.5405273 C63.7334464,18.8090834 63.6032394,19.1142561 63.5137207,19.4560547 L69.0312988,19.4560547 Z M75.5540527,15.1103516 L78.3006347,15.1103516 L78.3006347,16.2089844 C78.8296087,15.6555962 79.2812644,15.281251 79.6556152,15.0859375 C80.0543802,14.882486 80.5548635,14.7807617 81.1570801,14.7807617 C82.4998602,14.7807617 83.5618613,15.3666934 84.3431152,16.5385742 C85.2057497,15.3666934 86.373544,14.7807617 87.8465332,14.7807617 C90.5239554,14.7807617 91.8626465,16.4042806 91.8626465,19.6513672 L91.8626465,27 L89.1038574,27 L89.1038574,20.3959961 C89.1038574,19.2566675 88.9655124,18.4510115 88.6888183,17.9790039 C88.4039862,17.4988583 87.9360547,17.2587891 87.2850097,17.2587891 C86.52817,17.2587891 85.9768246,17.5436169 85.630957,18.1132812 C85.2850894,18.6829456 85.1121582,19.5984637 85.1121582,20.8598633 L85.1121582,27 L82.3533691,27 L82.3533691,20.4326172 C82.3533691,18.3167212 81.7430237,17.2587891 80.5223144,17.2587891 C79.7491986,17.2587891 79.1856463,17.5476859 78.8316406,18.1254883 C78.4776349,18.7032906 78.3006347,19.6147399 78.3006347,20.8598633 L78.3006347,27 L75.5540527,27 L75.5540527,15.1103516 Z M102.938623,17.1367188 L100.668115,18.3452148 C100.31004,17.6127893 99.8665228,17.246582 99.3375488,17.246582 C99.0852689,17.246582 98.8696135,17.3299959 98.6905761,17.4968262 C98.5115388,17.6636564 98.4220214,17.8772773 98.4220214,18.1376953 C98.4220214,18.5934268 98.9509875,19.0450824 100.008936,19.4926758 C101.465649,20.1193065 102.44627,20.6971002 102.95083,21.2260742 C103.45539,21.7550482 103.707666,22.4671179 103.707666,23.3623047 C103.707666,24.5097714 103.284493,25.4700482 102.438135,26.2431641 C101.616191,26.9755896 100.623362,27.3417969 99.4596191,27.3417969 C97.465794,27.3417969 96.0538615,26.3693131 95.2237793,24.4243164 L97.5675293,23.3378906 C97.8930517,23.9075549 98.1412589,24.2696932 98.3121582,24.4243164 C98.6458187,24.7335627 99.0445777,24.8881836 99.5084472,24.8881836 C100.436186,24.8881836 100.900049,24.4650107 100.900049,23.6186523 C100.900049,23.1303687 100.541979,22.674644 99.82583,22.2514648 C99.549136,22.1131178 99.272446,21.9788418 98.9957519,21.8486328 C98.7190578,21.7184238 98.4382989,21.5841478 98.1534668,21.4458008 C97.3559367,21.0551738 96.7944189,20.6645527 96.4688964,20.2739258 C96.0538553,19.777504 95.8463379,19.1386758 95.8463379,18.3574219 C95.8463379,17.3238881 96.2003382,16.4694044 96.9083496,15.7939453 C97.632637,15.1184862 98.5115345,14.7807617 99.5450683,14.7807617 C101.066886,14.7807617 102.198059,15.5660729 102.938623,17.1367188 Z" id="Systems" fill="#000000"></path>
    </g>
</svg>